<svg xmlns="http://www.w3.org/2000/svg" xmlns:xlink="http://www.w3.org/1999/xlink" version="1.1" id="Layer_1" x="0px" y="0px" viewBox="6 96 600 600" enable-background="new 6 96 600 600" xml:space="preserve"><rect x="6" y="96" fill="#F2A74B" width="600" height="603.9"/><linearGradient id="SVGID_1_" gradientUnits="userSpaceOnUse" x1="82.2" y1="405.7" x2="494.9" y2="405.7"><stop offset="0" style="stop-color:#FFFFFF"/><stop offset="1" style="stop-color:#F9AAC2"/></linearGradient><path opacity="0.9" fill="#BD234B" stroke="url(#SVGID_1_)" stroke-miterlimit="10" enable-background="new    " d="M318.2 229.6 c-97.4 0-176 78.9-176 176.1H83.4l76.2 76.2l1.4 2.8l79-79.1h-58.7c0-75.6 61.4-137 137-137s137 61.4 137 137s-61.4 137-137 137 c-37.9 0-72-15.5-96.8-40.2l-27.7 27.7c31.8 31.9 75.7 51.7 124.4 51.7c97.4 0 176.2-78.9 176.2-176.1S415.6 229.6 318.2 229.6z M298.7 327.4v97.9l83.8 49.7l14.1-23.8l-68.5-40.6v-83.2H298.7z"/></svg>